<svg width="50" height="50" viewBox="0 0 50 50" fill="none" xmlns="http://www.w3.org/2000/svg">
<g id="Frame">
<g id="Group">
<g id="Group_2">
<path id="Vector" d="M25 4.16675C13.4938 4.16675 4.16669 13.4938 4.16669 25.0001C4.16669 34.2574 10.2094 42.0948 18.5625 44.8084H31.4375C39.7906 42.0948 45.8333 34.2574 45.8333 25.0001C45.8333 13.4938 36.5062 4.16675 25 4.16675Z" fill="url(#paint0_linear_69_2)"/>
<path id="Vector_2" opacity="0.05" d="M31.2604 43.746L31.25 37.7064C31.25 36.7283 31.0208 35.7731 30.5813 34.9075C36.4573 33.7273 39.3167 30.2533 39.3167 24.3064C39.3167 21.9575 38.624 19.8835 37.2583 18.1398C37.3625 17.8096 37.4396 17.4679 37.4875 17.1179C37.6833 15.6918 37.4635 14.7596 37.2865 14.0096L37.2583 13.8887C37.0646 13.0596 36.8323 12.4679 36.8229 12.4429L36.7073 12.1491L36.5917 11.8554L36.2771 11.8221L35.9615 11.7887C35.9615 11.7887 35.7542 11.7668 35.4396 11.7668C35.0031 11.7668 34.3563 11.8106 33.7448 12.0179L33.5406 12.0866C32.7698 12.346 32.0417 12.5918 31.0229 13.2002C30.725 13.3783 30.399 13.5814 30.05 13.8085C28.4729 13.4179 26.7761 13.2189 25 13.2189C23.2063 13.2189 21.4948 13.4189 19.9073 13.8137C19.5542 13.5846 19.2261 13.3793 18.9261 13.2002C17.9073 12.5918 17.1792 12.3471 16.4083 12.0866L16.2042 12.0179C15.5948 11.8106 14.9469 11.7668 14.5104 11.7668C14.1959 11.7668 13.9886 11.7887 13.9886 11.7887L13.674 11.8221L13.3615 11.8543L13.2448 12.1471L13.1271 12.4418C13.1167 12.4689 12.8844 13.0606 12.6906 13.8908L12.6625 14.0106C12.4854 14.7596 12.2656 15.6929 12.4615 17.1179C12.5115 17.4783 12.5917 17.8314 12.7011 18.171C11.3625 19.9064 10.6844 21.9689 10.6844 24.3064C10.6844 30.2387 13.5469 33.7106 19.4313 34.9002C19.2292 35.3043 19.0719 35.7314 18.9604 36.1752C18.7552 36.245 18.5667 36.2918 18.4 36.3179C18.1521 36.3554 17.8927 36.3741 17.6302 36.3741C16.9156 36.3741 16.3542 36.2345 16.1354 36.1043C15.8094 35.9106 15.2271 35.347 14.6625 34.5231C14.1802 33.82 13.4281 32.9002 12.5875 32.5158C11.8604 32.1835 11.0906 31.9929 10.474 31.9929C10.3302 31.9929 10.1979 32.0033 10.0823 32.022C9.54377 32.1075 9.09377 32.4033 8.84898 32.8345C8.63752 33.2064 8.60419 33.6397 8.75731 34.0231C8.98544 34.5939 9.64377 35.0491 10.1563 35.3304C10.4084 35.4689 10.9531 35.9752 11.2709 36.4856C11.5094 36.8689 11.6198 37.1418 11.7729 37.5189C11.8636 37.7429 11.9636 37.9866 12.099 38.2814C12.5886 39.346 14.1167 40.2856 14.2896 40.3887C15.1292 40.8918 16.5406 41.0533 17.5781 41.1002L17.7063 41.1033H17.7073C17.9573 41.1033 18.3011 41.0793 18.7531 41.0293V43.7512C18.7552 44.3022 18.1938 44.4272 17.4511 44.4158L18.0208 44.6075C20.2031 45.3877 22.5469 45.8335 25 45.8335C27.4531 45.8335 29.7969 45.3877 31.9823 44.6085L32.7146 44.3356C31.974 44.3106 31.2667 44.1897 31.2604 43.746Z" fill="black"/>
<path id="Vector_3" opacity="0.07" d="M32.0636 44.5803C31.6406 44.6292 30.7292 44.4667 30.7292 43.7522V37.7063C30.7292 36.5668 30.3875 35.4657 29.7542 34.5272C35.9156 33.5303 38.7948 30.2636 38.7948 24.3063C38.7948 21.9761 38.0802 19.9376 36.6708 18.2418C36.8135 17.8616 36.9135 17.4605 36.9708 17.047C37.1531 15.7178 36.9542 14.8741 36.7792 14.1293L36.751 14.0084C36.5656 13.2157 36.3469 12.6574 36.3375 12.6345L36.2219 12.3407L35.9063 12.3074C35.9063 12.3074 35.7208 12.2876 35.4385 12.2876C35.0417 12.2876 34.4552 12.3261 33.9115 12.5116L33.7073 12.5803C32.9636 12.8313 32.2604 13.0678 31.2896 13.647C30.9438 13.8532 30.5583 14.0959 30.1427 14.3699C28.5458 13.9522 26.8177 13.7397 25 13.7397C23.1646 13.7397 21.4219 13.9532 19.8136 14.3751C19.3938 14.0991 19.0063 13.8553 18.6584 13.647C17.6875 13.0678 16.9844 12.8303 16.2406 12.5803L16.0365 12.5116C15.4938 12.3272 14.9063 12.2876 14.5094 12.2876C14.2271 12.2876 14.0417 12.3074 14.0417 12.3074L13.7271 12.3407L13.6094 12.6355C13.6 12.6584 13.3813 13.2168 13.1959 14.0095L13.1677 14.1303C12.9917 14.8751 12.7927 15.7178 12.9761 17.047C13.0344 17.4709 13.1386 17.8813 13.2865 18.2699C11.9042 19.9574 11.2042 21.9855 11.2042 24.3063C11.2042 30.247 14.0854 33.5126 20.2521 34.5209C19.8406 35.1355 19.5531 35.8282 19.4052 36.5667C19.0615 36.7022 18.75 36.7917 18.4771 36.8334C18.2031 36.8751 17.9177 36.8959 17.6292 36.8959C16.9104 36.8959 16.2198 36.7615 15.8688 36.5532C15.4104 36.2813 14.7677 35.6011 14.2313 34.8188C13.8667 34.2876 13.1406 33.3428 12.3688 32.9907C11.7073 32.6886 11.0167 32.5147 10.4719 32.5147C10.3573 32.5147 10.2532 32.523 10.1615 32.5376C9.78024 32.598 9.46565 32.8001 9.29899 33.0938C9.16565 33.3272 9.14378 33.597 9.23753 33.8313C9.42399 34.298 10.1146 34.7168 10.4032 34.8751C10.7521 35.0667 11.3604 35.6501 11.7094 36.2126C11.9709 36.6334 12.0948 36.9386 12.2521 37.324C12.3407 37.5417 12.4375 37.7792 12.5688 38.0657C12.9136 38.8147 13.9781 39.599 14.5531 39.9438C15.3386 40.4147 16.7969 40.5459 17.5969 40.5813L17.7125 40.5834C18.024 40.5834 18.5459 40.5365 19.2698 40.4428V43.7522C19.2698 44.5636 18.2375 44.5959 17.9844 44.5959C17.9521 44.5959 18.5084 44.7876 18.5084 44.7876C20.5531 45.4584 22.7313 45.8334 25 45.8334C27.2688 45.8334 29.4469 45.4584 31.4906 44.7886C31.4906 44.7886 32.0958 44.5761 32.0636 44.5803Z" fill="black"/>
<path id="Vector_4" d="M38.275 24.3064C38.275 21.9001 37.4604 19.9043 36.0698 18.3397C36.2208 18.0012 36.3781 17.547 36.4562 16.9762C36.6354 15.6741 36.424 14.8928 36.2448 14.1283C36.0656 13.3637 35.8542 12.8262 35.8542 12.8262C35.8542 12.8262 34.8937 12.7283 34.0802 13.0053C33.2667 13.2824 32.5667 13.4939 31.5573 14.096C31.0854 14.3772 30.6104 14.6856 30.2344 14.9356C28.6271 14.4897 26.8594 14.2606 25 14.2606C23.124 14.2606 21.3406 14.4908 19.7219 14.9397C19.3448 14.6887 18.8667 14.3783 18.3917 14.0949C17.3823 13.4928 16.6823 13.2814 15.8688 13.0043C15.0552 12.7272 14.0948 12.8251 14.0948 12.8251C14.0948 12.8251 13.8833 13.3626 13.7042 14.1272C13.525 14.8918 13.3135 15.6731 13.4927 16.9751C13.5729 17.5606 13.7354 18.0231 13.8906 18.3637C12.526 19.9189 11.726 21.9022 11.726 24.3053C11.726 30.5376 15.0927 33.3824 21.2271 34.1335C20.5115 34.8897 20.0313 35.8585 19.8698 36.9366C19.4667 37.1137 19.0021 37.2803 18.5552 37.347C17.4052 37.521 16.1896 37.347 15.6042 37.0001C15.0188 36.6533 14.324 35.872 13.8031 35.1116C13.3635 34.4699 12.7292 33.7251 12.1542 33.4626C11.3948 33.1158 10.6563 32.9855 10.2448 33.0501C9.8323 33.1158 9.63751 33.4189 9.72397 33.6366C9.81043 33.8533 10.2229 34.1793 10.6573 34.4178C11.0917 34.6564 11.7646 35.3074 12.1552 35.9366C12.5906 36.6387 12.676 37.0439 13.0448 37.846C13.3042 38.4105 14.1917 39.1157 14.824 39.4949C15.3667 39.821 16.451 40.0064 17.624 40.0595C18.0292 40.0782 18.9865 39.9595 19.7938 39.8449V43.7512C19.7938 44.4168 19.1844 44.923 18.5531 44.8064C20.5792 45.4876 22.7427 45.8335 25 45.8335C27.2562 45.8335 29.4198 45.4876 31.4479 44.8085C30.8177 44.9241 30.2083 44.4178 30.2083 43.7522V37.7064C30.2083 36.322 29.6594 35.071 28.7781 34.1387C34.8677 33.4074 38.275 30.6303 38.275 24.3064ZM11.7073 34.0908C11.5469 34.0085 11.4604 33.8564 11.5146 33.7491C11.5688 33.6418 11.7438 33.622 11.9042 33.7043C12.0646 33.7866 12.151 33.9387 12.0969 34.046C12.0427 34.1532 11.8677 34.173 11.7073 34.0908ZM12.9698 34.8772C12.8854 34.9689 12.7042 34.9397 12.5646 34.8126C12.425 34.6855 12.3802 34.5074 12.4646 34.4158C12.549 34.3241 12.7302 34.3533 12.8698 34.4803C13.0094 34.6074 13.0542 34.7855 12.9698 34.8772ZM13.7552 36.1793C13.649 36.2543 13.4688 36.1845 13.3531 36.023C13.2375 35.8616 13.2302 35.6689 13.3365 35.5939C13.4427 35.5189 13.6229 35.5887 13.7385 35.7501C13.8531 35.9116 13.8615 36.1043 13.7552 36.1793ZM14.8833 37.1595C14.8115 37.2762 14.6073 37.2814 14.4281 37.172C14.249 37.0626 14.1615 36.8793 14.2333 36.7626C14.3052 36.646 14.5094 36.6407 14.6885 36.7501C14.8677 36.8595 14.9552 37.0428 14.8833 37.1595ZM15.95 38.1189C15.7281 38.0918 15.5635 37.9533 15.5823 37.8095C15.6 37.6658 15.7948 37.572 16.0156 37.5991C16.2375 37.6262 16.4021 37.7647 16.3833 37.9085C16.3656 38.0512 16.1719 38.146 15.95 38.1189ZM17.6698 38.3678C17.4333 38.3543 17.249 38.2189 17.2583 38.0668C17.2677 37.9147 17.4667 37.8012 17.7031 37.8147C17.9396 37.8282 18.124 37.9637 18.1146 38.1157C18.1052 38.2689 17.9063 38.3814 17.6698 38.3678ZM19.2927 38.2053C19.0406 38.2053 18.8365 38.0741 18.8365 37.9126C18.8365 37.7512 19.0406 37.6199 19.2927 37.6199C19.5448 37.6199 19.749 37.7512 19.749 37.9126C19.749 38.0741 19.5438 38.2053 19.2927 38.2053Z" fill="white"/>
</g>
</g>
</g>
<defs>
<linearGradient id="paint0_linear_69_2" x1="4.16669" y1="24.4876" x2="45.8333" y2="24.4876" gradientUnits="userSpaceOnUse">
<stop/>
<stop offset="1"/>
</linearGradient>
</defs>
</svg>
