<svg width="50" height="50" viewBox="0 0 50 50" fill="none" xmlns="http://www.w3.org/2000/svg">
<g id="Frame">
<path id="Vector" d="M43.75 38.5417C43.75 41.4187 41.4187 43.75 38.5417 43.75H11.4583C8.58229 43.75 6.25 41.4187 6.25 38.5417V11.4583C6.25 8.58125 8.58229 6.25 11.4583 6.25H38.5417C41.4187 6.25 43.75 8.58125 43.75 11.4583V38.5417Z" fill="#0078D4"/>
<path id="Vector_2" opacity="0.05" d="M31.25 38.5416V28.0218C31.25 26.2624 30.3969 25.2114 28.9666 25.2114C28.1177 25.2114 27.4937 25.6895 27.1135 26.6322C27.0958 26.6989 27.0708 26.9708 27.0812 27.7926L27.0833 38.5416H19.7916V18.7499H27.0833V19.8551C28.1479 19.1208 29.4531 18.7499 30.9771 18.7499C35.7135 18.7499 38.5406 21.9718 38.5406 27.3687L38.5416 38.5416H31.25ZM11.4583 38.5416V18.7499H15.0594C12.9729 18.7499 11.4583 17.2166 11.4583 15.103C11.4583 12.9916 12.9979 11.4583 15.1187 11.4583C17.2146 11.4583 18.7073 12.9489 18.75 15.0822C18.75 17.2114 17.2094 18.7499 15.0885 18.7499H18.75V38.5416H11.4583Z" fill="black"/>
<path id="Vector_3" opacity="0.07" d="M31.7709 38.0209V28.022C31.7709 25.9667 30.6969 24.6907 28.9667 24.6907C27.6177 24.6907 26.9511 25.6407 26.6302 26.4376C26.5448 26.6449 26.5563 27.4678 26.5604 27.8188L26.5625 38.0209H20.3125V19.2709H26.5625V20.9772C27.3906 20.1199 28.724 19.2709 30.9771 19.2709C35.3865 19.2709 38.0198 22.298 38.0198 27.3688L38.0209 38.0209H31.7709ZM11.9792 38.0209V19.2709H18.2292V38.0209H11.9792ZM15.0594 18.2292C13.275 18.2292 11.9792 16.9147 11.9792 15.1032C11.9792 13.2928 13.3 11.9792 15.1188 11.9792C16.9146 11.9792 18.1927 13.2595 18.2292 15.0928C18.2292 16.9147 16.9084 18.2292 15.0886 18.2292H15.0594Z" fill="black"/>
<path id="Vector_4" d="M12.5 19.7917H17.7083V37.5H12.5V19.7917ZM15.0885 17.7083H15.0594C13.5052 17.7083 12.5 16.55 12.5 15.1031C12.5 13.625 13.5365 12.5 15.1187 12.5C16.7031 12.5 17.6792 13.625 17.7083 15.1031C17.7083 16.549 16.7031 17.7083 15.0885 17.7083ZM37.5 37.5H32.2917V28.0219C32.2917 25.7323 31.0156 24.1698 28.9667 24.1698C27.4031 24.1698 26.5573 25.224 26.1469 26.2427C25.9969 26.6073 26.0417 27.6156 26.0417 28.125V37.5H20.8333V19.7917H26.0417V22.5167C26.7927 21.3542 27.9688 19.7917 30.9771 19.7917C34.7042 19.7917 37.499 22.1354 37.499 27.3687L37.5 37.5Z" fill="white"/>
</g>
</svg>
