<svg width="50" height="50" viewBox="0 0 50 50" fill="none" xmlns="http://www.w3.org/2000/svg">
<g id="Frame">
<path id="Vector" d="M5.07086 45.1072L7.87711 34.8624C6.14586 31.8645 5.23545 28.4624 5.23649 24.978C5.2417 14.077 14.1125 5.20825 25.0146 5.20825C30.3052 5.21034 35.2698 7.26971 39.0042 11.0062C42.7375 14.7437 44.7938 19.7103 44.7917 24.9937C44.7875 35.8947 35.9146 44.7645 25.0146 44.7645H25.0063C21.6969 44.7635 18.4438 43.9333 15.5552 42.3572L5.07086 45.1072Z" fill="white"/>
<path id="Vector_2" d="M5.07085 45.6281C4.93335 45.6281 4.80002 45.574 4.70106 45.474C4.57085 45.3417 4.51981 45.149 4.56877 44.9708L7.31773 34.9333C5.61356 31.9062 4.7146 28.4687 4.71669 24.9792C4.72085 13.7896 13.8261 4.6875 25.0146 4.6875C30.4417 4.68958 35.5406 6.80313 39.3729 10.6385C43.2052 14.475 45.3146 19.5729 45.3125 24.9937C45.3083 36.1823 36.2021 45.2854 25.0146 45.2854C21.6927 45.2844 18.4063 44.4646 15.4896 42.9135L5.20315 45.6104C5.1594 45.6229 5.11565 45.6281 5.07085 45.6281Z" fill="white"/>
<path id="Vector_3" d="M25.0146 5.20841C30.3052 5.2105 35.2698 7.26987 39.0042 11.0063C42.7375 14.7438 44.7938 19.7105 44.7917 24.9938C44.7875 35.8949 35.9146 44.7647 25.0146 44.7647H25.0063C21.6969 44.7636 18.4438 43.9334 15.5552 42.3574L5.07084 45.1074L7.87709 34.8626C6.14584 31.8647 5.23543 28.4626 5.23647 24.9782C5.24168 14.0772 14.1125 5.20841 25.0146 5.20841ZM25.0146 4.16675C13.5396 4.16675 4.20001 13.5022 4.1948 24.9782C4.19376 28.4855 5.07918 31.9417 6.75834 35.0011L4.06563 44.8334C3.96772 45.1928 4.06772 45.5761 4.33022 45.8407C4.52813 46.0407 4.79584 46.1501 5.07084 46.1501C5.15938 46.1501 5.24793 46.1386 5.33543 46.1157L15.4261 43.4699C18.3719 44.999 21.674 45.8063 25.0063 45.8074C36.4896 45.8074 45.8292 36.4709 45.8344 24.9949C45.8365 19.4334 43.6729 14.2042 39.7427 10.2709C35.8104 6.33654 30.5802 4.16883 25.0146 4.16675Z" fill="#CFD8DC"/>
<path id="Vector_4" d="M36.6417 13.3666C33.5375 10.2604 29.4115 8.54889 25.0198 8.54785C15.9531 8.54785 8.57918 15.9187 8.57501 24.9791C8.57397 28.0843 9.44272 31.1072 11.0886 33.7249L11.4802 34.3468L9.81876 40.4103L16.0406 38.7791L16.6417 39.1353C19.1646 40.6333 22.0583 41.4249 25.0083 41.426H25.0146C34.075 41.426 41.449 34.0541 41.4521 24.9926C41.4531 20.602 39.7458 16.4729 36.6417 13.3666Z" fill="#40C351"/>
<path id="Vector_5" fill-rule="evenodd" clip-rule="evenodd" d="M20.0709 16.7135C19.7011 15.8906 19.3115 15.874 18.9584 15.8594C18.6698 15.8469 18.3406 15.8479 18.0115 15.8479C17.6823 15.8479 17.1469 15.9719 16.6938 16.4667C16.2406 16.9615 14.9636 18.1563 14.9636 20.5875C14.9636 23.0188 16.7344 25.3688 16.9813 25.6979C17.2281 26.0271 20.4 31.176 25.4229 33.1573C29.5969 34.8031 30.4469 34.476 31.3531 34.3938C32.2594 34.3115 34.2771 33.199 34.6886 32.0448C35.1 30.8906 35.1 29.9021 34.9771 29.6958C34.8531 29.4896 34.524 29.3667 34.0302 29.1188C33.5365 28.8708 31.1063 27.676 30.6531 27.5115C30.2 27.3469 29.8709 27.2646 29.5406 27.7594C29.2115 28.2531 28.2646 29.3667 27.9761 29.6958C27.6875 30.026 27.399 30.0677 26.9052 29.8198C26.4115 29.5719 24.8198 29.051 22.9313 27.3677C21.4625 26.0583 20.4709 24.4406 20.1823 23.9458C19.8938 23.4521 20.1511 23.1844 20.399 22.9375C20.6209 22.7156 20.8927 22.3604 21.1406 22.0719C21.3875 21.7833 21.4698 21.5771 21.6344 21.2479C21.799 20.9177 21.7167 20.6292 21.5927 20.3823C21.4709 20.1344 20.5104 17.6906 20.0709 16.7135Z" fill="white"/>
</g>
</svg>
