<svg width="80" height="80" viewBox="0 0 80 80" fill="none" xmlns="http://www.w3.org/2000/svg">
<g id="Frame">
<g id="Group">
<g id="Group_2">
<g id="Group_3">
<path id="Vector" d="M49.226 9.434C33.59 12.366 28 17 28 17L31.636 17.252L23 23L24 26L28 23L29 25C29 25 35.298 19.288 37.499 18.229C37.855 18.058 38.306 17.87 38.813 17.676L16 65.137H18.932L16.977 71L22.84 65.137C22.844 65.136 22.847 65.135 22.851 65.134H22.943L22.956 65.107C60.951 55.335 60.953 40.704 60.953 38.752C60.953 35.82 57.044 32.889 57.044 32.889C57.044 32.889 62.62 29.459 65.839 24.094C68.771 19.206 64.862 6.502 49.226 9.434ZM51 42C49.684 44.631 45.476 47.411 43 49C39.662 51.142 33.662 53.16 28 55L33.893 41.939C34.109 41.86 34.759 40.096 35 40C44.772 36.091 50 34 52 38C52.45 38.901 52 40 51 42ZM58.998 22.138C58.732 22.032 58.998 21.161 58.398 21.161C57.46 23.066 55.879 24.989 55 26C53.489 27.74 50 29 47 30C44.821 30.726 40.157 32.287 38 33L46.356 15.54C47.069 15.41 47.718 15.323 48.249 15.298C51.187 15.156 57.499 14.721 58.999 17.252C58.999 17.252 58.765 16.345 58.999 16.275C59.842 16.02 60.953 18.326 60.953 19.207C60.953 20.087 59.816 22.465 58.998 22.138Z" fill="#FFEB9B"/>
<path id="Vector_2" d="M23.0001 65C23.0001 65 20.8751 65.684 22.3281 63.701C23.6591 61.885 25.5171 60.532 27.6631 59.853C31.2891 58.706 36.6571 56.861 43.5231 53.511C45.9591 52.322 48.8161 52.342 51.2181 53.599C51.6811 53.84 52.0001 53.999 52.0001 53.999L46.0001 57L23.0001 65Z" fill="#EFC88E"/>
<path id="Vector_3" d="M14.664 58.636C14.518 58.636 14.371 58.605 14.231 58.537L12.428 57.671C11.93 57.432 11.72 56.834 11.96 56.337C12.199 55.839 12.798 55.63 13.294 55.868L15.097 56.734C15.595 56.973 15.805 57.571 15.565 58.068C15.394 58.427 15.036 58.636 14.664 58.636Z" fill="#8D6C9F"/>
<path id="Vector_4" d="M16.747 54.303C16.601 54.303 16.454 54.272 16.314 54.204L14.511 53.338C14.013 53.099 13.803 52.501 14.043 52.004C14.282 51.506 14.882 51.297 15.377 51.535L17.18 52.401C17.678 52.64 17.888 53.238 17.648 53.735C17.477 54.094 17.119 54.303 16.747 54.303Z" fill="#8D6C9F"/>
<path id="Vector_5" d="M18.8291 49.97C18.6831 49.97 18.5361 49.939 18.3961 49.871L16.5941 49.005C16.0961 48.766 15.8861 48.168 16.1261 47.67C16.3661 47.173 16.9651 46.963 17.4601 47.202L19.2621 48.068C19.7601 48.307 19.9701 48.905 19.7301 49.403C19.5591 49.761 19.2011 49.97 18.8291 49.97Z" fill="#8D6C9F"/>
<path id="Vector_6" d="M20.912 45.637C20.766 45.637 20.619 45.606 20.479 45.538L18.676 44.671C18.178 44.432 17.969 43.834 18.208 43.336C18.448 42.84 19.047 42.63 19.543 42.868L21.346 43.735C21.844 43.974 22.053 44.572 21.814 45.07C21.642 45.428 21.284 45.637 20.912 45.637Z" fill="#8D6C9F"/>
<path id="Vector_7" d="M22.9951 41.303C22.8491 41.303 22.7021 41.272 22.5621 41.204L20.7591 40.338C20.2611 40.099 20.0511 39.501 20.2911 39.004C20.5301 38.506 21.1291 38.296 21.6251 38.535L23.4281 39.401C23.9261 39.64 24.1361 40.238 23.8961 40.735C23.7251 41.094 23.3671 41.303 22.9951 41.303Z" fill="#8D6C9F"/>
<path id="Vector_8" d="M25.0781 36.97C24.9321 36.97 24.7851 36.939 24.6451 36.871L22.8431 36.005C22.3451 35.766 22.1351 35.168 22.3751 34.67C22.6151 34.173 23.2141 33.963 23.7091 34.202L25.5111 35.068C26.0091 35.307 26.2191 35.905 25.9791 36.403C25.8071 36.761 25.4501 36.97 25.0781 36.97Z" fill="#8D6C9F"/>
<path id="Vector_9" d="M27.161 32.637C27.015 32.637 26.868 32.606 26.728 32.538L24.925 31.672C24.427 31.433 24.217 30.835 24.457 30.338C24.697 29.84 25.296 29.63 25.791 29.869L27.594 30.735C28.092 30.974 28.302 31.572 28.062 32.069C27.891 32.428 27.533 32.637 27.161 32.637Z" fill="#8D6C9F"/>
<g id="Group_4">
<path id="Vector_10" d="M34.0001 58.745C33.5911 58.745 33.2081 58.493 33.0601 58.087C32.8721 57.567 33.1401 56.994 33.6591 56.806C36.0011 55.954 38.1861 55.044 40.1531 54.099C40.6511 53.861 41.2481 54.07 41.4871 54.568C41.7261 55.065 41.5171 55.663 41.0191 55.902C38.9931 56.876 36.7471 57.812 34.3421 58.685C34.2291 58.726 34.1131 58.745 34.0001 58.745Z" fill="#8D6C9F"/>
</g>
<g id="Group_5">
<path id="Vector_11" d="M27.0001 61C26.5651 61 26.1651 60.714 26.0391 60.274C25.8871 59.743 26.1951 59.19 26.7261 59.038C27.8651 58.713 28.9591 58.382 30.0101 58.047C30.5341 57.877 31.0981 58.17 31.2661 58.696C31.4341 59.222 31.1431 59.785 30.6171 59.953C29.5481 60.294 28.4341 60.631 27.2751 60.962C27.1831 60.987 27.0901 61 27.0001 61Z" fill="#8D6C9F"/>
</g>
<path id="Vector_12" d="M16.977 72C16.796 72 16.614 71.951 16.452 71.851C16.057 71.607 15.883 71.124 16.029 70.684L17.545 66.137H16C15.656 66.137 15.336 65.96 15.153 65.669C14.97 65.378 14.949 65.014 15.098 64.703L36.6 19.973C34.435 21.523 31.052 24.49 29.672 25.741C29.441 25.952 29.124 26.042 28.816 25.983C28.508 25.925 28.246 25.728 28.106 25.448L27.642 24.519L24.6 26.8C24.343 26.993 24.008 27.053 23.702 26.954C23.395 26.858 23.153 26.621 23.052 26.316L22.052 23.316C21.909 22.887 22.071 22.418 22.447 22.168L28.638 18.047L27.931 17.998C27.523 17.97 27.174 17.695 27.049 17.307C26.924 16.917 27.048 16.492 27.362 16.231C27.598 16.035 33.332 11.397 49.042 8.452C58.996 6.584 63.659 10.866 65.551 13.585C67.965 17.055 68.447 21.69 66.697 24.608C64.249 28.689 60.55 31.655 58.699 32.977C59.988 34.167 61.954 36.373 61.954 38.751C61.954 43.962 58.189 57.04 23.366 66.034C23.362 66.036 23.357 66.038 23.353 66.04L17.686 71.707C17.491 71.9 17.235 72 16.977 72ZM17.59 64.137H18.931C19.252 64.137 19.555 64.291 19.742 64.552C19.93 64.813 19.981 65.149 19.88 65.453L19.265 67.298L22.134 64.43C22.254 64.31 22.403 64.222 22.566 64.175C22.593 64.168 22.621 64.161 22.649 64.155C22.669 64.148 22.688 64.142 22.708 64.137C57.269 55.248 59.954 42.458 59.954 38.75C59.954 36.755 57.421 34.419 56.445 33.687C56.18 33.489 56.031 33.172 56.046 32.841C56.062 32.511 56.239 32.209 56.521 32.035C56.575 32.002 61.934 28.66 64.983 23.577C66.125 21.675 66.136 17.925 63.91 14.725C62.296 12.404 58.269 8.757 49.413 10.414C39.876 12.202 34.125 14.644 31.165 16.215L31.707 16.252C32.134 16.282 32.495 16.58 32.604 16.994C32.713 17.407 32.548 17.846 32.191 18.082L24.191 23.407L24.51 24.365L27.4 22.2C27.637 22.022 27.942 21.959 28.23 22.026C28.519 22.094 28.762 22.287 28.895 22.552L29.309 23.38C31.222 21.685 35.265 18.193 37.066 17.327C37.441 17.146 37.919 16.947 38.455 16.741C38.835 16.593 39.27 16.696 39.548 16.997C39.826 17.299 39.891 17.738 39.714 18.108L17.59 64.137ZM28 56C27.721 56 27.448 55.883 27.255 55.667C26.991 55.372 26.925 54.949 27.088 54.589L32.981 41.527C33.035 41.408 33.11 41.302 33.203 41.215C33.282 41.077 33.421 40.783 33.518 40.579C33.919 39.733 34.141 39.267 34.627 39.072C44.851 34.981 50.481 32.729 52.894 37.552C53.569 38.903 52.966 40.302 51.894 42.447C50.576 45.085 46.931 47.665 43.54 49.842C40.159 52.012 34.406 53.97 28.309 55.951C28.208 55.984 28.104 56 28 56ZM34.727 42.523L29.845 53.343C34.848 51.687 39.681 49.942 42.461 48.157C44.374 46.929 48.857 44.053 50.107 41.552C50.954 39.86 51.34 38.914 51.107 38.447C49.594 35.424 45.257 36.976 35.626 40.827C35.536 40.996 35.411 41.26 35.327 41.436C35.09 41.933 34.924 42.282 34.727 42.523ZM33.549 41C33.548 41 33.548 41 33.547 41C33.547 41 33.548 41 33.549 41ZM38 34C37.718 34 37.443 33.88 37.25 33.661C36.985 33.36 36.925 32.93 37.099 32.568L45.454 15.108C45.593 14.819 45.861 14.613 46.178 14.556C46.971 14.411 47.653 14.325 48.202 14.298L48.597 14.278C52.268 14.091 56.222 14.043 58.49 15.406C58.561 15.368 58.635 15.34 58.708 15.317C58.986 15.232 59.544 15.16 60.166 15.623C61.13 16.339 61.955 18.19 61.955 19.205C61.955 20.15 61.119 22.165 60.089 22.863C59.453 23.294 58.901 23.175 58.629 23.065H58.628C58.585 23.047 58.545 23.029 58.507 23.008C57.642 24.389 56.586 25.7 55.757 26.654C54.087 28.576 50.526 29.878 47.319 30.946L45.123 31.679C42.815 32.45 39.895 33.424 38.317 33.947C38.211 33.983 38.105 34 38 34ZM47.034 16.438L39.918 31.308C41.361 30.828 43.044 30.266 44.486 29.784L46.683 29.052C48.819 28.34 52.793 27.015 54.245 25.344C55.723 23.644 56.849 22.045 57.501 20.719C57.67 20.378 58.018 20.161 58.398 20.161C58.687 20.161 59.109 20.235 59.427 20.604C59.702 20.115 59.952 19.479 59.952 19.206C59.952 18.972 59.782 18.501 59.567 18.072C59.508 18.113 59.446 18.147 59.379 18.176C58.914 18.365 58.389 18.189 58.137 17.762C57.01 15.859 51.181 16.155 48.696 16.277L48.298 16.298C47.948 16.313 47.524 16.361 47.034 16.438Z" fill="#8D6C9F"/>
</g>
</g>
</g>
</g>
</svg>
