<svg width="60" height="60" viewBox="0 0 60 60" fill="none" xmlns="http://www.w3.org/2000/svg">
<g id="Frame">
<path id="Vector" d="M9.21624 14.3037C9.11624 11.415 11.3675 8.75 14.4112 8.75H45.5937C48.6375 8.75 50.8887 11.415 50.7875 14.3037C50.6912 17.08 50.8162 20.675 51.7212 23.6075C52.6287 26.5487 54.16 28.4075 56.6675 28.6462V31.355C54.16 31.5937 52.63 33.4525 51.7212 36.3937C50.8162 39.325 50.6912 42.9212 50.7875 45.6975C50.8875 48.585 48.6362 51.25 45.5937 51.25H14.4112C11.3687 51.25 9.11624 48.585 9.21749 45.6962C9.31374 42.92 9.18874 39.325 8.28374 36.3925C7.37624 33.4512 5.84124 31.5925 3.33374 31.3537V28.645C5.84124 28.4062 7.37499 26.5475 8.28374 23.6062C9.18749 20.675 9.31374 17.08 9.21624 14.3037Z" fill="#7C4DFF"/>
<path id="Vector_2" d="M33.8412 29.33V29.295C36.1575 28.895 37.965 26.7237 37.965 24.3325C37.965 22.6425 37.315 21.21 36.085 20.1925C34.8587 19.1775 33.1387 18.6412 31.1087 18.6412H21.8125V41.35H31.1562C33.5837 41.35 35.6 40.7575 36.985 39.635C38.3712 38.5112 39.105 36.8762 39.105 34.9062C39.1038 31.93 36.9912 29.695 33.8412 29.33ZM29.4875 28.26H25.5112V21.6125H30.2413C32.8363 21.6125 34.265 22.7512 34.265 24.8187C34.2662 27.0375 32.5687 28.26 29.4875 28.26ZM25.5112 31.0425H30.21C33.605 31.0425 35.325 32.2687 35.325 34.6875C35.325 37.1025 33.6287 38.3787 30.4187 38.3787H25.5112V31.0425Z" fill="white"/>
</g>
</svg>
