<svg width="60" height="60" viewBox="0 0 60 60" fill="none" xmlns="http://www.w3.org/2000/svg">
<g id="Frame">
<g id="Group">
<g id="Group_2">
<g id="Group_3">
<path id="Vector" d="M32.25 22.125H23.25C18.9007 22.125 15.375 18.5992 15.375 14.25C15.375 9.90075 18.9007 6.375 23.25 6.375H32.25V22.125Z" fill="#E64A19"/>
<path id="Vector_2" d="M31.125 37.875H23.25C18.9007 37.875 15.375 34.3492 15.375 30C15.375 25.6507 18.9007 22.125 23.25 22.125H31.125V37.875Z" fill="#7C4DFF"/>
<path id="Vector_3" d="M23.25 53.625C18.9007 53.625 15.375 50.0992 15.375 45.75C15.375 41.4007 18.9007 37.875 23.25 37.875H31.125V45.75C31.125 50.0992 27.5992 53.625 23.25 53.625Z" fill="#66BB6A"/>
<path id="Vector_4" d="M39 22.125H31.125V6.375H39C43.3492 6.375 46.875 9.90075 46.875 14.25C46.875 18.5992 43.3492 22.125 39 22.125Z" fill="#FF7043"/>
<path id="Vector_5" d="M39 37.875C43.3492 37.875 46.875 34.3492 46.875 30C46.875 25.6508 43.3492 22.125 39 22.125C34.6508 22.125 31.125 25.6508 31.125 30C31.125 34.3492 34.6508 37.875 39 37.875Z" fill="#29B6F6"/>
</g>
</g>
</g>
</g>
</svg>
