<svg width="60" height="60" viewBox="0 0 60 60" fill="none" xmlns="http://www.w3.org/2000/svg">
<g id="Frame">
<path id="Vector" fill-rule="evenodd" clip-rule="evenodd" d="M30.0525 5.03998C43.8312 5.03998 55 16.2087 55 29.9875C55 43.765 43.8312 54.935 30.0525 54.935C16.275 54.935 5.10498 43.7662 5.10498 29.9875C5.10623 16.2087 16.275 5.03998 30.0525 5.03998Z" fill="#F06292"/>
<path id="Vector_2" d="M45.7012 15.7175C44.5712 11.2862 37.225 9.82999 30.2725 12.3C26.135 13.77 21.655 16.0775 18.4337 19.09C14.6037 22.6725 13.9937 25.79 14.245 27.0925C15.1325 31.6887 21.4312 34.6937 24.02 36.9237V36.9375C23.2562 37.3137 17.6687 40.1412 16.3612 43.0325C14.9812 46.0825 16.5812 48.2712 17.64 48.5662C20.9212 49.4787 24.2875 47.8375 26.0975 45.1387C27.8437 42.5337 27.6987 39.1712 26.94 37.4975C27.9862 37.2212 29.2075 37.0975 30.7575 37.2787C35.1337 37.79 35.9925 40.5225 35.8275 41.6662C35.6637 42.81 34.745 43.4387 34.4387 43.6287C34.1312 43.8187 34.0387 43.885 34.0637 44.025C34.1012 44.23 34.2425 44.2225 34.505 44.1787C34.865 44.1175 36.8025 43.2487 36.8862 41.1375C36.9912 38.4575 34.4237 35.46 29.8762 35.5375C28.0037 35.57 26.8262 35.7475 25.975 36.065C25.9125 35.9937 25.8475 35.9225 25.7825 35.8512C22.9712 32.8512 17.7737 30.73 17.9937 26.6975C18.0737 25.2312 18.5837 21.3712 27.98 16.6887C35.6775 12.8525 41.84 13.9087 42.905 16.2475C44.4262 19.59 39.6112 25.8012 31.6175 26.6975C28.5712 27.0387 26.9675 25.8587 26.5687 25.4187C26.1487 24.9562 26.0862 24.935 25.93 25.0225C25.675 25.1637 25.8362 25.5725 25.93 25.8162C26.1687 26.4375 27.1487 27.5387 28.8175 28.0875C30.2862 28.57 33.8625 28.8337 38.1875 27.1612C43.03 25.2862 46.8125 20.0737 45.7012 15.7175ZM25.095 38.2975C25.4575 39.64 25.4175 40.8925 25.0437 42.0262C25.0025 42.1525 24.9562 42.2762 24.9062 42.4C24.8562 42.5225 24.8025 42.645 24.745 42.765C24.4562 43.365 24.0675 43.9262 23.5925 44.445C22.1425 46.0262 20.1175 46.6237 19.25 46.12C18.3125 45.5762 18.7825 43.3475 20.4625 41.57C22.27 39.6587 24.8712 38.43 24.8712 38.43L24.8675 38.4225C24.9425 38.3812 25.0187 38.34 25.095 38.2975Z" fill="white"/>
</g>
</svg>
