<svg width="80" height="80" viewBox="0 0 80 80" fill="none" xmlns="http://www.w3.org/2000/svg">
<g id="Frame">
<path id="Vector" d="M40 6.66669L11.6666 23.3334V56.6667L40 73.3334L68.3333 56.6667V23.3334L40 6.66669Z" fill="#ECEFF1"/>
<path id="Vector_2" d="M39.1667 40.8333V55.8333L25 48.3333V32.5L39.1667 40.8333Z" fill="#0277BD"/>
<path id="Vector_3" d="M40.8334 40.8333V55.8333L55 48.3333V32.5L40.8334 40.8333Z" fill="#0277BD"/>
<path id="Vector_4" d="M40 39.1666L25.8334 30.8333L40 23.3333L54.1667 30.8333L40 39.1666Z" fill="#0277BD"/>
<g id="Group">
<path id="Vector_5" d="M39.1667 11.6667V21.6667L24.1667 30L15.8334 25L39.1667 11.6667Z" fill="#81D4FA"/>
<path id="Vector_6" d="M39.1667 68.3333V58.3333L24.1667 50L15.8334 55L39.1667 68.3333Z" fill="#81D4FA"/>
<path id="Vector_7" d="M23.3333 31.6667L15 26.6667V53.3334L23.3333 48.3334V31.6667Z" fill="#81D4FA"/>
<path id="Vector_8" d="M40.8334 11.6667V21.6667L55.8334 30L64.1667 25L40.8334 11.6667Z" fill="#81D4FA"/>
<path id="Vector_9" d="M40.8334 68.3333V58.3333L55.8334 50L64.1667 55L40.8334 68.3333Z" fill="#81D4FA"/>
<path id="Vector_10" d="M56.6666 31.6667L65 26.6667V53.3334L56.6666 48.3334V31.6667Z" fill="#81D4FA"/>
</g>
</g>
</svg>
